<?xml version="1.0" standalone="no"?>
<!DOCTYPE svg PUBLIC "-//W3C//DTD SVG 20010904//EN"
 "http://www.w3.org/TR/2001/REC-SVG-20010904/DTD/svg10.dtd">
<svg version="1.0" xmlns="http://www.w3.org/2000/svg"
 width="260.000000pt" height="260.000000pt" viewBox="0 0 260.000000 260.000000"
 preserveAspectRatio="xMidYMid meet">
<metadata>
Created by potrace 1.14, written by Peter Selinger 2001-2017
</metadata>
<g transform="translate(0.000000,260.000000) scale(0.100000,-0.100000)"
fill="#000000" stroke="none">
<path d="M0 1300 l0 -1300 1300 0 1300 0 0 1300 0 1300 -1300 0 -1300 0 0
-1300z m694 150 c77 -242 143 -445 147 -451 7 -11 35 73 226 671 l69 215 187
3 187 2 0 -245 0 -245 255 0 255 0 0 245 0 245 125 0 125 0 0 -590 0 -590
-125 0 -125 0 -2 243 -3 242 -252 3 -253 2 0 -245 0 -245 -125 0 -125 0 -2
361 -3 361 -124 -361 -124 -361 -161 0 -161 0 -199 578 c-109 317 -201 583
-203 590 -4 9 27 12 133 12 l139 0 139 -440z"/>
</g>
</svg>
